Coordinates
version=1
nRows=21
nColumns=12
inDegrees=yes

Units are S.I. units (second, meters, Newtons, ...)
Angles are in degrees

endheader
time	SC_y	SC_z	SC_x	AC_y	AC_z	AC_x	GH_y	GH_z	GH_yy	EL_x	PS_y
       0.0              -40.59          7.546          2.384          31.73          -10.6          1.973          144.8          59.04         -124.8          49.57          105.8
   0.03717              -40.59          7.544          2.393          31.74         -10.59          1.971          144.8          59.03         -124.8          49.58          105.8
   0.07434              -40.59          7.542          2.403          31.74         -10.59          1.969          144.8          59.03         -124.8          49.58          105.7
    0.1115              -40.59           7.54          2.414          31.75         -10.59          1.968          144.8          59.02         -124.8          49.58          105.7
    0.1487              -40.59          7.538          2.425          31.75         -10.59          1.966          144.8          59.01         -124.8          49.58          105.7
    0.1859              -40.59          7.536          2.438          31.76         -10.59          1.963          144.8          59.01         -124.8          49.58          105.7
     0.223              -40.59          7.533           2.45          31.76         -10.59          1.961          144.8           59.0         -124.8          49.59          105.7
    0.2602              -40.58          7.531          2.464          31.77         -10.59          1.959          144.8          58.99         -124.8          49.59          105.7
    0.2974              -40.58          7.528          2.479          31.78         -10.58          1.956          144.8          58.98         -124.8          49.59          105.6
    0.3346              -40.58          7.525          2.495          31.79         -10.58          1.953          144.7          58.97         -124.8           49.6          105.6
    0.3717              -40.58          7.522          2.512           31.8         -10.58           1.95          144.7          58.96         -124.8           49.6          105.6
    0.4089              -40.58          7.519           2.53          31.81         -10.58          1.947          144.7          58.95         -124.8           49.6          105.6
    0.4461              -40.58          7.515           2.55          31.82         -10.57          1.943          144.7          58.93         -124.8          49.61          105.5
    0.4832              -40.57          7.511          2.571          31.83         -10.57          1.939          144.7          58.92         -124.8          49.61          105.5
    0.5204              -40.57          7.507          2.594          31.84         -10.57          1.935          144.7           58.9         -124.8          49.61          105.5
    0.5576              -40.57          7.502          2.619          31.85         -10.57          1.931          144.7          58.89         -124.8          49.62          105.4
    0.5948              -40.57          7.497          2.647          31.86         -10.56          1.926          144.6          58.87         -124.8          49.62          105.4
    0.6319              -40.56          7.491          2.676          31.88         -10.56          1.921          144.6          58.85         -124.8          49.63          105.3
    0.6691              -40.56          7.485          2.709           31.9         -10.55          1.915          144.6          58.83         -124.8          49.64          105.3
    0.7063              -40.56          7.479          2.744          31.91         -10.55          1.909          144.6          58.81         -124.8          49.64          105.2
    0.7434              -40.55          7.472          2.783          31.93         -10.55          1.902          144.5          58.78         -124.8          49.65          105.2
